<svg xmlns="http://www.w3.org/2000/svg" width="142" height="24" viewBox="0 0 142 24"><text transform="translate(0 19)" fill="#2e292c" font-size="20" font-family="Montserrat-Regular, Montserrat"><tspan x="0" y="0">SmartMen</tspan><tspan y="0" fill="#f44336">oo</tspan><tspan y="0">s</tspan></text><g transform="translate(109.8 10.8)"><path d="M0,0H5.858V5.858H0Z" fill="none"/><path d="M4.048,5.625l.691-.691L3.026,3.223a.978.978,0,0,0,0,1.382ZM5.7,5.183A1.187,1.187,0,0,0,6.99,4.846a1.085,1.085,0,0,0,.2-1.494,1.087,1.087,0,0,0-1.494.2,1.187,1.187,0,0,0-.337,1.286L2.974,7.219l.344.344L5,5.886,6.68,7.565l.344-.344L5.344,5.542,5.7,5.183Z" transform="translate(-2.071 -2.369)" fill="#f44336"/></g><g transform="translate(122.5 10.9)"><path d="M0,0H5.754V5.754H0Z" fill="none"/><path d="M7.315,3.479V3H3v.479L4.918,5.637v1.2h-1.2v.479H6.6V6.836H5.4v-1.2Zm-3.253.479-.424-.479H6.68l-.427.479Z" transform="translate(-2.281 -2.281)" fill="#f44336"/></g></svg>
